<?xml version="1.0" encoding="utf-8"?>
<!-- Svg Vector Icons : http://www.onlinewebfonts.com/icon -->
<!DOCTYPE svg PUBLIC "-//W3C//DTD SVG 1.1//EN" "http://www.w3.org/Graphics/SVG/1.1/DTD/svg11.dtd">
<svg version="1.1" xmlns="http://www.w3.org/2000/svg" xmlns:xlink="http://www.w3.org/1999/xlink" x="0px" y="0px" viewBox="0 0 1000 1000" enable-background="new 0 0 1000 1000" xml:space="preserve">
<metadata> Svg Vector Icons : http://www.onlinewebfonts.com/icon </metadata>
<g><g><g><g><path d="M536.8,315.2c1.8-5.8-1.3-11.7-7-13.4c-5.7-1.8-11.6,1.4-13.4,7c0,0-13.1,42.2-15.9,51.3c-5.8,1.6-23,6.3-35,9.8c-0.4-1.9-0.8-3.8-1.2-5.6H297.6c-0.5,1.8-0.9,3.7-1.2,5.6c-12-3.4-29.3-8.1-35-9.8c-2.8-9.1-15.9-51.3-15.9-51.3c-1.8-5.6-7.8-8.8-13.5-7c-5.6,1.6-8.7,7.7-7,13.4l19.3,62.3l48.9,13.7c-0.3,4.5-0.5,9.1-0.5,13.8c0,5.7,0.3,11.3,0.9,16.8l-48.9,21.9L229.3,530c-1.1,5.8,2.8,11.5,8.6,12.5c5.8,0.9,11.4-2.9,12.5-8.8c0,0,11.6-65.4,13.2-75c4.7-2.1,20.2-9.1,33.4-15c11.6,49.3,44.7,85,83.8,85c39.1,0,72.3-35.7,83.8-85c13.2,5.9,28.7,12.8,33.3,15c1.7,9.6,13.3,75,13.3,75c1,5.9,6.6,9.8,12.4,8.8c5.9-0.9,9.8-6.6,8.6-12.5l-15.2-86.3l-48.9-21.9c0.6-5.5,0.9-11.2,0.9-16.8c0-4.6-0.3-9.3-0.6-13.8l48.9-13.7L536.8,315.2z"/><path d="M276.7,237.4c2.1,0.3,48.5,9.7,58.4,62c-12.5,13.4-20.5,32.1-20.5,52.8c0,0.3,0,0.4,0,0.7H447c0-0.3,0-0.4,0-0.7c0-20.7-7.9-39.5-20.5-52.8c9.9-52.4,56.4-61.8,58.4-62c4.3-0.9,7.3-5.1,6.3-9.5c-0.8-4.3-4.9-7.2-9.2-6.3c-0.5,0.1-54,10.4-69.3,66.5c-9.4-5.7-20.3-8.9-31.8-8.9c-11.6,0-22.4,3.2-31.9,8.9c-15.3-56-68.9-66.4-69.4-66.5c-4.4-0.9-8.6,2.1-9.3,6.3C269.5,232.3,272.4,236.5,276.7,237.4z"/><path d="M971.4,864.1l-137.9-138V10H28.6v926h762.8l54,54c0,0,58,0.6,92.9-39.2C973.2,910.9,971.4,864.1,971.4,864.1z M81.6,883c0-48.3,0-771.8,0-820c47.4,0,651.5,0,699,0c0,32.8,0,377.5,0,610.2L705.4,598l-34.7,20.8l-52.6-50.8c82.1-115.1,72.3-275.7-31-378.7C472,74.1,285.4,74.3,170.8,189.1C56,304,56,490.4,170.8,605.7C274.2,709,434.6,718.6,549.6,636.4l49.3,47.5l-19.7,39.8L738.4,883C589.9,883,123.1,883,81.6,883z M539.3,557.9c-88.4,88.4-232.2,88.6-320.9,0c-88.4-88.6-88.4-232.2,0.2-320.9c88.3-88.4,232.1-88.6,320.8,0.1C628,325.7,628,469.1,539.3,557.9z"/></g></g><g></g><g></g><g></g><g></g><g></g><g></g><g></g><g></g><g></g><g></g><g></g><g></g><g></g><g></g><g></g></g><g></g><g></g><g></g><g></g><g></g><g></g><g></g><g></g><g></g><g></g><g></g><g></g><g></g><g></g><g></g></g>
</svg>