<?xml version="1.0" encoding="UTF-8" standalone="no"?>
<svg xmlns:dc="http://purl.org/dc/elements/1.1/" xmlns:cc="http://creativecommons.org/ns#" xmlns:rdf="http://www.w3.org/1999/02/22-rdf-syntax-ns#" xmlns:svg="http://www.w3.org/2000/svg" xmlns="http://www.w3.org/2000/svg" xmlns:sodipodi="http://sodipodi.sourceforge.net/DTD/sodipodi-0.dtd" xmlns:inkscape="http://www.inkscape.org/namespaces/inkscape" sodipodi:docname="PIqaD in pIqaD.svg" inkscape:version="1.0 (4035a4fb49, 2020-05-01)" id="svg8" version="1.1" viewBox="0 0 163.08704 41.046398" height="41.046398mm" width="163.08704mm">
  <defs id="defs2"/>
  <sodipodi:namedview inkscape:window-maximized="1" inkscape:window-y="-8" inkscape:window-x="-8" inkscape:window-height="837" inkscape:window-width="1600" showgrid="false" inkscape:document-rotation="0" inkscape:current-layer="text835" inkscape:document-units="mm" inkscape:cy="449.83772" inkscape:cx="312.896" inkscape:zoom="0.35" inkscape:pageshadow="2" inkscape:pageopacity="0.0" borderopacity="1.0" bordercolor="#666666" pagecolor="#ffffff" id="base"/>
  <metadata id="metadata5">
    <rdf:RDF>
      <cc:Work rdf:about="">
        <dc:format>image/svg+xml</dc:format>
        <dc:type rdf:resource="http://purl.org/dc/dcmitype/StillImage"/>
        <dc:title/>
      </cc:Work>
    </rdf:RDF>
  </metadata>
  <g transform="translate(-23.046268,-29.147102)" id="layer1" inkscape:groupmode="layer" inkscape:label="Layer 1">
    <g style="font-weight:bold;font-size:50.8px;line-height:1.25;font-family:'Klingon pIqaD HaSta';-inkscape-font-specification:'Klingon pIqaD HaSta Bold';letter-spacing:0px;word-spacing:0px;stroke-width:0.264583" id="text835" aria-label="">
      <path id="path837" style="stroke-width:0.264583" d="m 30.666268,68.923502 q 1.016,-2.8956 5.334,-11.0744 3.7592,-7.0612 4.572,-10.9728 l 0.2032,-1.4732 q 0,-1.2192 -0.6096,-1.778 l -0.0508,-0.2032 -0.3556,-0.8128 q -1.1176,-1.778 -2.6924,-2.032 -1.3208,1.1176 -3.1496,2.3368 -6.8072,4.6228 -9.9568,4.6736 -0.6096,0 -0.9144,-0.1524 2.54,-2.4892 5.2832,-5.4356 6.9596,-7.4676 10.414,-12.3952 l 8.7376,-0.4572 q 0.8128,0.0508 1.016,0.6096 l 0.0508,0.1524 q -0.0508,0.3556 -1.778,1.778 -2.7432,2.286 -2.9464,3.2004 v 0.4572 q 0.1524,0.5588 4.7752,3.6576 4.216399,2.8956 4.267199,4.1148 0.0508,0.9144 -1.8288,3.8608 -3.708399,5.9436 -9.651999,12.5476 -0.9652,1.1176 -2.4384,2.794 -3.048,3.3528 -8.2804,6.604 z"/>
      <path id="path839" style="stroke-width:0.264583" d="m 73.193806,29.248702 q 3.8608,2.9464 4.4196,3.6576 l 1.8796,2.3876 q 8.1788,10.5664 8.1788,12.2428 v 0.1524 q -0.254,1.2192 -8.2296,4.4704 -4.4196,1.778 -5.4356,2.2352 -0.3048,0.1524 -0.6096,1.6256 l 0.0508,0.7112 0.508,1.6256 q 0.762,1.778 2.7432,5.588 2.54,4.8768 2.54,5.6896 l -0.1016,0.254 v 0.0508 l -0.3556,0.0508 -1.016,-0.4572 q -2.54,-1.1176 -10.0584,-7.5184 -2.8956,-2.4384 -3.9116,-3.556 -2.1844,-2.4384 -4.9784,-7.0104 -1.778,-2.9464 -1.778,-3.9116 v -0.1524 l 3.0988,-7.9248 q 1.1176,-2.8956 1.7272,-2.9464 3.4544,-1.3208 6.7056,-1.8288 h 1.016 q 0.0508,0 0.0508,0 v 0.4064 q -0.2032,0.6604 -3.8608,9.7028 -0.6096,1.524 -1.0668,2.7432 l 0.1016,0.3556 q 0.6604,0.9652 2.9464,1.6764 1.016,0.3556 1.7272,0.3556 0.8636,0 1.1176,-0.508 0.1524,-0.3556 1.016,-2.794 0.4572,-1.1684 0.9652,-1.1684 0.1524,0 0.3556,0.1016 l 3.3528,1.27 0.7112,0.0508 q 0.1016,0 0.1524,-0.1016 0.8636,-0.4064 0.8636,-1.9304 0,-2.2352 -2.5908,-9.1948 -1.778,-4.7752 -2.2352,-6.4008 z"/>
      <path id="path841" style="stroke-width:0.264583" d="m 104.60408,69.177502 q 0.2032,-1.9304 0.2032,-3.7592 0,-12.8016 -9.550401,-20.32 l -2.6416,-2.0828 q -0.254,-0.254 -0.3048,-0.4064 l 9.550401,-11.2268 q 1.2192,-1.4224 1.524,-1.5748 l 1.6764,-0.0508 q 4.826,-0.1016 7.6708,0.6096 0.3048,0.1016 0.3048,0.2032 0,0.1524 -4.5212,5.8928 -4.5212,5.6896 -4.5212,6.5024 3.3528,4.3688 4.064,7.874 0.3556,1.5748 0.3556,3.302 -0.0508,3.9624 -2.4384,13.8176 -0.5588,2.2352 -1.1176,2.2352 -0.3048,0 -0.3048,-0.5588 0,-0.2032 0.0508,-0.4572 z"/>
      <path id="path843" style="stroke-width:0.264583" d="m 117.96686,53.785102 23.4188,-24.4348 h 9.6012 q -3.7592,1.3716 -6.5532,3.7084 -3.556,2.9464 -3.6068,6.35 0.2032,1.27 2.54,2.794 3.2512,2.2352 3.3528,2.3368 0.6604,0.6604 0.7112,1.2192 -0.3556,0.8128 -2.0828,0.6604 l -6.5532,-0.4572 h -1.016 q -0.2032,0.0508 -0.508,0.4572 -0.3048,0.4064 -0.3048,0.6604 0,0.3048 0.2032,0.508 0.2032,0.1524 0.508,0.2032 l 3.7084,1.9812 q 1.8796,0.9652 3.5052,3.5052 2.54,3.9624 5.6388,16.3576 -0.1016,0.4572 -0.3556,0.4572 -0.3048,0 -0.6096,-0.5588 -5.3848,-10.0584 -11.684,-13.3604 -2.286,-1.1684 -5.2832,-1.8796 -7.874,-0.1524 -14.6304,-0.508 z"/>
      <path id="path845" style="stroke-width:0.264583" d="m 173.07771,50.432302 -0.3556,-0.0508 -0.5588,0.4064 q -1.6256,1.4732 -3.4544,5.2832 -1.3208,2.7432 -1.3208,4.064 0,0.7112 0.508,0.9652 2.032,0.8636 3.9624,0.8636 1.6256,0 3.048,-0.6604 2.7432,-2.2352 2.8448,-4.318 l 0.0508,-0.7112 q -0.0508,-0.9652 -2.1844,-3.6576 -1.7272,-2.1844 -2.54,-2.1844 z m -12.192,-20.066 14.986,15.494 q 10.2616,11.0744 10.2616,13.716 -0.254,2.6924 -4.2672,5.588 -3.6068,2.5908 -6.604,3.0988 l -1.27,0.1016 q -0.0508,0 -0.2032,0 h -12.954 q -1.8796,0 -2.3876,-0.3048 -2.4384,-2.1844 -2.4384,-5.1308 -0.0508,-2.7432 2.3368,-6.5024 4.7752,-6.0452 5.1308,-10.4648 l -0.0508,-1.9304 q -0.0508,-1.8288 -1.9812,-7.366 -1.4224,-3.9624 -1.9812,-6.096 0.2032,-0.9652 0.4572,-0.9652 l 0.4064,0.1524 q 0.254,0.2032 0.5588,0.6096 z"/>
    </g>
  </g>
</svg>